<svg width="141" height="141" viewBox="0 0 141 141" fill="none" xmlns="http://www.w3.org/2000/svg">
<path d="M127.038 94.7135C128.525 94.7135 129.731 93.5081 129.731 92.0212C129.731 90.5342 128.525 89.3289 127.038 89.3289C125.552 89.3289 124.346 90.5342 124.346 92.0212C124.346 93.5081 125.552 94.7135 127.038 94.7135Z" fill="#888888"/>
<path d="M127.038 51.6363C128.525 51.6363 129.731 50.4309 129.731 48.944C129.731 47.4571 128.525 46.2517 127.038 46.2517C125.552 46.2517 124.346 47.4571 124.346 48.944C124.346 50.4309 125.552 51.6363 127.038 51.6363Z" fill="#888888"/>
<path d="M16.6538 51.6363C18.1408 51.6363 19.3461 50.4309 19.3461 48.944C19.3461 47.4571 18.1408 46.2517 16.6538 46.2517C15.1669 46.2517 13.9615 47.4571 13.9615 48.944C13.9615 50.4309 15.1669 51.6363 16.6538 51.6363Z" fill="#888888"/>
<path d="M94.7308 94.7135C96.2177 94.7135 97.4231 93.5081 97.4231 92.0212C97.4231 90.5342 96.2177 89.3289 94.7308 89.3289C93.2438 89.3289 92.0385 90.5342 92.0385 92.0212C92.0385 93.5081 93.2438 94.7135 94.7308 94.7135Z" fill="#888888"/>
<path d="M16.6538 92.0211C18.1408 92.0211 19.3461 90.8157 19.3461 89.3288C19.3461 87.8419 18.1408 86.6365 16.6538 86.6365C15.1669 86.6365 13.9615 87.8419 13.9615 89.3288C13.9615 90.8157 15.1669 92.0211 16.6538 92.0211Z" fill="#888888"/>
<path d="M59.7308 65.098C61.2177 65.098 62.4231 63.8926 62.4231 62.4057C62.4231 60.9188 61.2177 59.7134 59.7308 59.7134C58.2438 59.7134 57.0385 60.9188 57.0385 62.4057C57.0385 63.8926 58.2438 65.098 59.7308 65.098Z" fill="#888888"/>
<path d="M75.8846 57.0211C77.3715 57.0211 78.5769 55.8157 78.5769 54.3288C78.5769 52.8419 77.3715 51.6365 75.8846 51.6365C74.3977 51.6365 73.1923 52.8419 73.1923 54.3288C73.1923 55.8157 74.3977 57.0211 75.8846 57.0211Z" fill="#888888"/>
<path d="M11.2692 127.021C12.7561 127.021 13.9615 125.816 13.9615 124.329C13.9615 122.842 12.7561 121.636 11.2692 121.636C9.78231 121.636 8.57692 122.842 8.57692 124.329C8.57692 125.816 9.78231 127.021 11.2692 127.021Z" fill="#888888"/>
<path d="M118.72 106.56C120.268 104.734 121.205 102.374 121.205 99.7989C121.205 94.0258 116.508 89.3288 110.735 89.3288C104.962 89.3288 100.265 94.0256 100.265 99.7989C100.265 102.374 101.201 104.734 102.75 106.56C101.03 107.442 99.4994 108.64 98.2343 110.079C95.805 104.386 90.7863 100.056 84.6669 98.568C87.6484 95.5884 89.4956 91.4735 89.4956 86.9356C89.4956 77.8634 82.1149 70.4827 73.0429 70.4827C63.9706 70.4827 56.5899 77.8634 56.5899 86.9356C56.5899 91.4735 58.4369 95.5884 61.4183 98.5678C55.2992 100.056 50.2805 104.386 47.8512 110.078C46.5859 108.64 45.0553 107.442 43.3357 106.56C44.884 104.734 45.8207 102.374 45.8207 99.7989C45.8207 94.0258 41.1237 89.3288 35.3506 89.3288C29.5775 89.3288 24.8805 94.0256 24.8805 99.7989C24.8805 102.374 25.8171 104.734 27.3652 106.56C22.4324 109.091 19.047 114.226 19.047 120.141V127.021C19.047 128.508 20.2524 129.713 21.7394 129.713H46.2692V132.406C46.2692 133.892 47.4746 135.098 48.9615 135.098H97.124C98.6107 135.098 99.8163 133.892 99.8163 132.406V129.713H124.346C125.833 129.713 127.038 128.508 127.038 127.021V120.141C127.038 114.226 123.653 109.091 118.72 106.56ZM110.735 94.7134C113.539 94.7134 115.82 96.9949 115.82 99.7989C115.82 102.601 113.542 104.881 110.74 104.884H110.73C107.928 104.881 105.649 102.602 105.649 99.7989C105.649 96.9949 107.931 94.7134 110.735 94.7134ZM73.0429 75.8673C79.1458 75.8673 84.111 80.8324 84.111 86.9356C84.111 93.0386 79.1458 98.0037 73.0429 98.0037C66.9397 98.0037 61.9745 93.0386 61.9745 86.9356C61.9745 80.8324 66.9397 75.8673 73.0429 75.8673ZM35.3506 94.7134C38.1549 94.7134 40.4361 96.9949 40.4361 99.7989C40.4361 102.601 38.1576 104.881 35.3557 104.884H35.3455C32.5438 104.881 30.2651 102.602 30.2651 99.7989C30.2651 96.9949 32.5465 94.7134 35.3506 94.7134ZM43.876 124.329V121.188C43.876 119.701 42.6707 118.495 41.1837 118.495C39.6968 118.495 38.4914 119.701 38.4914 121.188V124.329H32.2095V121.188C32.2095 119.701 31.0041 118.495 29.5172 118.495C28.0302 118.495 26.8249 119.701 26.8249 121.188V124.329H24.4317V120.141C24.4317 114.697 28.8602 110.269 34.3035 110.269H36.3976C41.8374 110.269 46.2636 114.692 46.2692 120.13V124.329H43.876ZM94.4317 129.713H86.0556V124.778C86.0556 123.291 84.85 122.085 83.3633 122.085C81.8766 122.085 80.671 123.291 80.671 124.778V129.713H65.4145V124.778C65.4145 123.291 64.2092 122.085 62.7222 122.085C61.2352 122.085 60.0299 123.291 60.0299 124.778V129.713H51.6539C51.6539 129.312 51.6539 117.307 51.6539 117.837C51.6539 109.87 58.1356 103.389 66.1027 103.389H79.9831C87.9502 103.389 94.4317 109.87 94.4317 117.837V127.021V129.713ZM121.654 124.329H119.261V121.188C119.261 119.701 118.055 118.495 116.568 118.495C115.082 118.495 113.876 119.701 113.876 121.188V124.329H107.594V121.188C107.594 119.701 106.388 118.495 104.902 118.495C103.415 118.495 102.209 119.701 102.209 121.188V124.329H99.816V120.141C99.816 114.697 104.245 110.269 109.688 110.269H111.782C117.225 110.269 121.654 114.697 121.654 120.141V124.329H121.654Z" fill="#888888"/>
<path d="M127.999 58.9038L114.132 56.8135C113.77 55.0153 113.294 53.2376 112.709 51.4962L123.678 42.7578C124.72 41.9277 124.998 40.4601 124.332 39.3062L120.241 32.2184C119.575 31.0645 118.165 30.5718 116.925 31.0583L103.857 36.1907C102.638 34.8187 101.338 33.5215 99.9697 32.3113L105.114 19.2499C105.602 18.0101 105.11 16.5993 103.956 15.9324L96.8523 11.8258C95.6981 11.1581 94.2297 11.4365 93.3991 12.479L84.6559 23.4534C82.9166 22.8748 81.1411 22.3996 79.3464 22.0326L77.269 8.16052C77.0716 6.84237 75.9395 5.86694 74.6063 5.86694H66.409C65.0771 5.86694 63.9453 6.84075 63.7469 8.15783L61.655 22.0321C59.86 22.3991 58.0836 22.8743 56.3438 23.4531L47.6006 12.4787C46.7692 11.4354 45.2995 11.1576 44.1453 11.8269L37.0575 15.9335C35.9063 16.6006 35.4146 18.0087 35.9014 19.2472L41.0338 32.3151C39.6677 33.5283 38.3719 34.8241 37.1585 36.1904L24.0905 31.0581C22.8518 30.5716 21.4437 31.0632 20.7768 32.2144L16.6703 39.3022C16.0015 40.4564 16.2788 41.9264 17.3221 42.7575L28.2965 51.5008C27.7176 53.2405 27.2424 55.0166 26.8755 56.8119L13.0009 58.9035C11.6838 59.1019 10.71 60.2338 10.71 61.5657V69.7632C10.71 71.0962 11.6855 72.2283 13.0036 72.4259L26.8757 74.5033C27.3752 76.9452 28.0746 79.3516 28.9625 81.6794C29.4935 83.0713 31.052 83.7646 32.4378 83.235C33.827 82.7051 34.5235 81.1493 33.9937 79.76C33.0013 77.159 32.276 74.4478 31.8377 71.7014C31.6527 70.5424 30.7384 69.6369 29.5777 69.4633L16.0947 67.4441V63.8824L29.5804 61.8494C30.74 61.6747 31.653 60.7696 31.8377 59.6116C32.276 56.8654 33.0013 54.154 33.9937 51.5527C34.4115 50.4575 34.0725 49.2179 33.1558 48.4875L22.4932 39.9925L24.276 36.9157L36.9794 41.9048C38.0709 42.3329 39.3126 42.0071 40.0519 41.0982C41.8059 38.943 43.7875 36.9612 45.9421 35.2083C46.8508 34.4687 47.1771 33.2264 46.7487 32.1358L41.7596 19.4324L44.8364 17.6496L53.3314 28.3124C54.0616 29.2292 55.3014 29.5676 56.3969 29.1503C58.9979 28.1579 61.7091 27.4326 64.4552 26.9943C65.6132 26.8096 66.5183 25.8966 66.6933 24.7371L68.726 11.2518H72.2874L74.3066 24.7349C74.4806 25.8956 75.3863 26.8101 76.545 26.9948C79.2912 27.4329 82.0026 28.1584 84.6037 29.1508C85.6989 29.5687 86.939 29.2297 87.6691 28.313L96.1655 17.6485L99.2541 19.434L94.2526 32.1339C93.8216 33.2281 94.1508 34.4754 95.0654 35.2144C97.2179 36.9537 99.2024 38.9336 100.964 41.0988C101.704 42.0074 102.946 42.3334 104.037 41.9054L116.737 36.9176L118.51 39.9906L107.844 48.4881C106.924 49.2217 106.586 50.4683 107.011 51.5659C108.015 54.1573 108.738 56.8598 109.16 59.5981C109.34 60.7623 110.255 61.6744 111.42 61.85L124.905 63.8829V67.4446L111.422 69.4638C110.257 69.6383 109.34 70.551 109.16 71.716C108.738 74.4546 108.015 77.1571 107.012 79.7479C106.475 81.1345 107.163 82.6938 108.55 83.2309C109.937 83.7683 111.496 83.0794 112.033 81.6926C112.936 79.3613 113.64 76.9509 114.133 74.5028L127.997 72.4265C129.315 72.2291 130.29 71.097 130.29 69.7638V61.5662C130.289 60.2341 129.316 59.1022 127.999 58.9038Z" fill="#888888"/>
<path d="M100.115 65.098C100.115 48.7681 86.8299 35.4827 70.5 35.4827C54.1701 35.4827 40.8846 48.7681 40.8846 65.098C40.8846 66.585 42.09 67.7904 43.5769 67.7904C45.0639 67.7904 46.2692 66.585 46.2692 65.098C46.2692 51.7372 57.1391 40.8673 70.5 40.8673C83.8608 40.8673 94.7308 51.7372 94.7308 65.098C94.7308 66.585 95.9364 67.7904 97.4231 67.7904C98.9098 67.7904 100.115 66.585 100.115 65.098Z" fill="#888888"/>
<path d="M19.3461 27.4056C23.7998 27.4056 27.4231 23.7822 27.4231 19.3286C27.4231 14.875 23.7998 11.2517 19.3461 11.2517C14.8925 11.2517 11.2692 14.875 11.2692 19.3286C11.2692 23.7822 14.8925 27.4056 19.3461 27.4056ZM19.3461 16.6363C20.8307 16.6363 22.0385 17.8441 22.0385 19.3286C22.0385 20.8132 20.8307 22.0209 19.3461 22.0209C17.8616 22.0209 16.6538 20.8132 16.6538 19.3286C16.6538 17.8441 17.8616 16.6363 19.3461 16.6363Z" fill="#888888"/>
<path d="M121.654 27.4057C127.592 27.4057 132.423 22.5746 132.423 16.6364C132.423 10.6983 127.592 5.86719 121.654 5.86719C115.716 5.86719 110.885 10.6983 110.885 16.6364C110.885 22.5746 115.716 27.4057 121.654 27.4057ZM121.654 11.2518C124.623 11.2518 127.038 13.6673 127.038 16.6364C127.038 19.6055 124.623 22.021 121.654 22.021C118.685 22.021 116.269 19.6055 116.269 16.6364C116.269 13.6673 118.685 11.2518 121.654 11.2518Z" fill="#888888"/>
</svg>
