<svg width="736" height="521" viewBox="0 0 736 521" fill="none" xmlns="http://www.w3.org/2000/svg">
<g opacity="0.2">
<path d="M520.659 899.346C570.262 899.346 619.379 889.576 665.205 870.594C711.032 851.611 752.672 823.789 787.746 788.714C822.82 753.64 850.643 712.001 869.625 666.174C888.607 620.347 898.377 571.23 898.377 521.627C898.377 472.025 888.607 422.908 869.625 377.081C850.643 331.254 822.82 289.615 787.746 254.54C752.672 219.466 711.032 191.643 665.205 172.661C619.378 153.679 570.262 143.909 520.659 143.909C471.056 143.909 421.939 153.679 376.112 172.661C330.285 191.643 288.646 219.466 253.572 254.54C218.497 289.615 190.675 331.254 171.693 377.081C152.711 422.908 142.941 472.025 142.941 521.627C142.941 571.23 152.711 620.347 171.693 666.174C190.675 712.001 218.497 753.64 253.572 788.715C288.646 823.789 330.286 851.611 376.112 870.594C421.939 889.576 471.056 899.346 520.659 899.346L520.659 899.346Z" stroke="#1A72FE" stroke-width="4"/>
<path d="M237.754 836.354C300.001 892.403 377.47 928.736 460.366 940.756C543.262 952.777 627.861 939.947 703.465 903.887C779.069 867.828 842.282 810.159 885.11 738.173C927.939 666.188 948.46 583.118 944.078 499.47C939.695 415.822 910.607 335.352 860.491 268.235C810.375 201.119 741.482 150.371 662.524 122.409C583.566 94.4471 498.089 90.5267 416.903 111.144C335.717 131.761 262.468 175.989 206.419 238.236" stroke="#2A2D3F" stroke-width="4"/>
<path d="M521.343 767.984C561.743 767.984 601.52 757.993 637.15 738.896C672.78 719.798 703.164 692.184 725.61 658.498C748.057 624.812 761.872 586.095 765.832 545.775C769.792 505.456 763.775 464.78 748.314 427.349C732.852 389.919 708.424 356.891 677.194 331.19C645.963 305.489 608.894 287.908 569.27 280.005C529.646 272.101 488.69 274.119 450.03 285.879C411.369 297.639 376.197 318.779 347.629 347.426" stroke="#1A72FE" stroke-width="4"/>
</g>
</svg>
