<svg width="65" height="43" viewBox="0 0 65 43" fill="none" xmlns="http://www.w3.org/2000/svg">
<path d="M21.5046 30.9892C18.9891 30.9892 16.5766 29.9899 14.7979 28.2112C13.0192 26.4325 12.02 24.0201 12.02 21.5046C12.02 18.9891 13.0192 16.5767 14.7979 14.798C16.5766 13.0193 18.9891 12.02 21.5046 12.02L21.5046 14.11C19.5434 14.11 17.6625 14.889 16.2758 16.2758C14.889 17.6626 14.1099 19.5434 14.1099 21.5046C14.1099 23.4658 14.889 25.3466 16.2758 26.7334C17.6625 28.1202 19.5434 28.8992 21.5046 28.8992L21.5046 30.9892Z" fill="#2A2D3F"/>
<path d="M21.5044 37.391C18.5669 37.391 15.687 36.5766 13.1845 35.0382C10.6821 33.4998 8.65513 31.2977 7.32895 28.6766C6.00277 26.0556 5.42927 23.1181 5.67217 20.1907C5.91508 17.2632 6.96488 14.4604 8.70493 12.0938C10.445 9.7271 12.8071 7.88921 15.5289 6.78432C18.2507 5.67942 21.2255 5.35079 24.1228 5.83494C27.0202 6.31909 29.7265 7.59706 31.9412 9.52685C34.1559 11.4566 35.7921 13.9627 36.6682 16.7665L34.7814 17.356C34.0143 14.9011 32.5816 12.7069 30.6425 11.0172C28.7034 9.32755 26.3338 8.2086 23.797 7.78469C21.2602 7.36079 18.6555 7.64853 16.2724 8.61594C13.8893 9.58335 11.8211 11.1926 10.2976 13.2647C8.77405 15.3369 7.85487 17.7909 7.64219 20.3541C7.42951 22.9173 7.93165 25.4892 9.09281 27.7842C10.254 30.0791 12.0287 32.0072 14.2198 33.3542C16.4108 34.7011 18.9325 35.4142 21.5044 35.4142L21.5044 37.391Z" fill="#1A72FE"/>
<path d="M21.5 40.1335C11.2091 40.1335 2.86662 31.791 2.86662 21.5001C2.86662 11.2092 11.2091 2.8667 21.5 2.8667C31.791 2.8667 40.1334 11.2092 40.1334 21.5001C40.1334 31.791 31.791 40.1335 21.5 40.1335ZM21.5 3.68526C11.6612 3.68526 3.68518 11.6612 3.68518 21.5001C3.68518 31.339 11.6612 39.3149 21.5 39.3149C31.3389 39.3149 39.3149 31.339 39.3149 21.5001C39.3149 11.6612 31.3389 3.68526 21.5 3.68526Z" fill="#1A72FE"/>
<path d="M31.2611 40.6565C27.9456 42.3459 24.2483 43.1459 20.5309 42.9782C16.8135 42.8105 13.2033 41.6808 10.0533 39.6996C6.9034 37.7185 4.32158 34.9537 2.5604 31.6757C0.799231 28.3976 -0.0809985 24.7186 0.00580887 20.9985C0.0926163 17.2783 1.14349 13.6444 3.05564 10.4521C4.96779 7.25976 7.67576 4.6184 10.9147 2.78632C14.1536 0.954246 17.8126 -0.00582018 21.5338 2.55899e-05C25.2549 0.00587136 28.9109 0.977429 32.144 2.81967L31.7493 3.51236C28.6361 1.73842 25.1157 0.802889 21.5325 0.79726C17.9493 0.791631 14.426 1.7161 11.3072 3.48024C8.18837 5.24439 5.58082 7.7878 3.73957 10.8617C1.89832 13.9357 0.886413 17.4349 0.802825 21.0171C0.719237 24.5993 1.56683 28.1419 3.2627 31.2983C4.95857 34.4548 7.44465 37.1171 10.4778 39.0248C13.5109 40.9325 16.9873 42.0203 20.5668 42.1818C24.1464 42.3433 27.7066 41.573 30.8992 39.9462L31.2611 40.6565Z" fill="#2A2D3F"/>
<path d="M21.5 33.4445C19.5358 33.4445 17.6018 32.9601 15.8695 32.0341C14.1372 31.1082 12.6599 29.7693 11.5686 28.136C10.4773 26.5028 9.80567 24.6257 9.61314 22.6708C9.42061 20.716 9.71315 18.7439 10.4648 16.9292C11.2165 15.1144 12.4042 13.513 13.9226 12.2669C15.441 11.0208 17.2433 10.1684 19.1698 9.78517C21.0963 9.40196 23.0876 9.49979 24.9673 10.07C26.847 10.6402 28.5571 11.6652 29.946 13.0541L29.2798 13.7203C28.0004 12.4409 26.4252 11.4968 24.6938 10.9716C22.9624 10.4464 21.1282 10.3563 19.3536 10.7093C17.5791 11.0622 15.9189 11.8474 14.5203 12.9952C13.1217 14.1431 12.0277 15.6181 11.3353 17.2897C10.6429 18.9613 10.3735 20.7779 10.5508 22.5785C10.7281 24.3791 11.3468 26.1082 12.352 27.6126C13.3572 29.117 14.7179 30.3503 16.3136 31.2032C17.9093 32.0561 19.6907 32.5023 21.5 32.5023L21.5 33.4445Z" fill="#1A72FE"/>
<path d="M24.3498 18.3034C24.3498 16.6369 25.0118 15.0386 26.1902 13.8602C27.3686 12.6819 28.9668 12.0198 30.6333 12.0198C32.2998 12.0198 33.8981 12.6819 35.0765 13.8602C36.2549 15.0386 36.9169 16.6369 36.9169 18.3034L34.8232 18.3034C34.8232 17.1921 34.3818 16.1264 33.596 15.3407C32.8103 14.5549 31.7446 14.1135 30.6333 14.1135C29.5221 14.1135 28.4564 14.5549 27.6706 15.3407C26.8849 16.1264 26.4434 17.1921 26.4434 18.3034L24.3498 18.3034Z" fill="#1A72FE"/>
<rect x="43.6371" y="16.0425" width="2.08493" height="11.1605" fill="#2A2D3F"/>
<rect x="52.0995" y="11.9951" width="2.08493" height="15.2077" fill="#2A2D3F"/>
<rect x="62.0348" y="12.0195" width="2.08493" height="15.1753" fill="#2A2D3F"/>
<path fill-rule="evenodd" clip-rule="evenodd" d="M54.1845 11.9951H52.0382L58.1704 22.0518L64.1185 11.9951H62.0336L58.1704 18.3112L54.1845 11.9951Z" fill="#2A2D3F"/>
<rect x="34.8068" y="18.1274" width="2.08493" height="9.07558" fill="#1A72FE"/>
<rect x="32.4116" y="21.6841" width="2.08493" height="3.3196" transform="rotate(90 32.4116 21.6841)" fill="#1A72FE"/>
<rect x="24.3822" y="18.1274" width="2.08493" height="9.07558" fill="#1A72FE"/>
<rect x="50.4325" y="12.02" width="2.08493" height="11.3815" transform="rotate(90 50.4325 12.02)" fill="#2A2D3F"/>
</svg>
