<svg width="30" height="30" viewBox="0 0 30 30" fill="none" xmlns="http://www.w3.org/2000/svg">
<g clip-path="url(#clip0_1538_8937)">
<path d="M7.25794 0.432983C6.25992 0.432983 5.44336 1.24955 5.44336 2.24757V27.6517C5.44336 28.6498 6.25992 29.4663 7.25794 29.4663H25.4038C26.4018 29.4663 27.2184 28.6498 27.2184 27.6517V7.69132L19.96 0.432983H7.25794Z" fill="#E2E5E7"/>
<path d="M21.7745 7.69132H27.2183L19.96 0.432983V5.87674C19.96 6.87476 20.7765 7.69132 21.7745 7.69132Z" fill="#B0B7BD"/>
<path d="M27.2191 13.135L21.7754 7.69128H27.2191V13.135Z" fill="#CAD1D8"/>
<path d="M23.5895 24.0226C23.5895 24.5216 23.1812 24.9299 22.6822 24.9299H2.72175C2.22273 24.9299 1.81445 24.5216 1.81445 24.0226V14.9497C1.81445 14.4506 2.22273 14.0424 2.72175 14.0424H22.6822C23.1812 14.0424 23.5895 14.4506 23.5895 14.9497V24.0226Z" fill="#B00B0B"/>
<path d="M5.76953 17.6234C5.76953 17.3839 5.95825 17.1226 6.26219 17.1226H7.93796C8.88154 17.1226 9.73077 17.754 9.73077 18.9644C9.73077 20.1112 8.88154 20.7499 7.93796 20.7499H6.72672V21.708C6.72672 22.0274 6.52349 22.2079 6.26219 22.2079C6.02267 22.2079 5.76953 22.0274 5.76953 21.708V17.6234ZM6.72672 18.0362V19.8435H7.93796C8.42427 19.8435 8.80896 19.4144 8.80896 18.9644C8.80896 18.4572 8.42427 18.0362 7.93796 18.0362H6.72672Z" fill="white"/>
<path d="M11.1512 22.2079C10.9117 22.2079 10.6504 22.0773 10.6504 21.7588V17.6379C10.6504 17.3775 10.9117 17.1879 11.1512 17.1879H12.8125C16.1277 17.1879 16.0551 22.2079 12.8778 22.2079H11.1512ZM11.6085 18.0734V21.3233H12.8125C14.7713 21.3233 14.8584 18.0734 12.8125 18.0734H11.6085Z" fill="white"/>
<path d="M17.2313 18.1315V19.2847H19.0812C19.3425 19.2847 19.6038 19.546 19.6038 19.7991C19.6038 20.0386 19.3425 20.2346 19.0812 20.2346H17.2313V21.758C17.2313 22.012 17.0507 22.2071 16.7967 22.2071C16.4773 22.2071 16.2822 22.012 16.2822 21.758V17.637C16.2822 17.3766 16.4782 17.187 16.7967 17.187H19.3434C19.6628 17.187 19.8515 17.3766 19.8515 17.637C19.8515 17.8693 19.6628 18.1306 19.3434 18.1306H17.2313V18.1315Z" fill="white"/>
<path d="M22.6819 24.9299H5.44336V25.8372H22.6819C23.1809 25.8372 23.5892 25.4289 23.5892 24.9299V24.0226C23.5892 24.5216 23.1809 24.9299 22.6819 24.9299Z" fill="#CAD1D8"/>
</g>
<defs>
<clipPath id="clip0_1538_8937">
<rect width="29.0333" height="29.0333" fill="white" transform="translate(0 0.432983)"/>
</clipPath>
</defs>
</svg>
