<svg width="20" height="20" viewBox="0 0 20 20" fill="none" xmlns="http://www.w3.org/2000/svg">
<path d="M17 10C17 8.61553 16.5895 7.26215 15.8203 6.11101C15.0511 4.95986 13.9579 4.06266 12.6788 3.53284C11.3997 3.00303 9.99223 2.86441 8.63437 3.1345C7.2765 3.4046 6.02922 4.07129 5.05025 5.05025C4.07128 6.02922 3.4046 7.2765 3.1345 8.63437C2.86441 9.99223 3.00303 11.3997 3.53284 12.6788C4.06266 13.9579 4.95986 15.0511 6.11101 15.8203C7.26215 16.5895 8.61553 17 10 17V14.4971C9.11056 14.4971 8.2411 14.2333 7.50156 13.7392C6.76203 13.245 6.18563 12.5427 5.84525 11.721C5.50488 10.8992 5.41582 9.99501 5.58934 9.12267C5.76286 8.25032 6.19117 7.44902 6.82009 6.82009C7.44902 6.19117 8.25032 5.76286 9.12267 5.58934C9.99501 5.41582 10.8992 5.50488 11.721 5.84525C12.5427 6.18563 13.245 6.76203 13.7392 7.50156C14.2333 8.2411 14.4971 9.11056 14.4971 10H17Z" fill="#FFD664"/>
</svg>
