<svg width="25" height="24" viewBox="0 0 25 24" fill="none" xmlns="http://www.w3.org/2000/svg">
<path d="M24.5 12C24.5 9.62662 23.7962 7.30655 22.4776 5.33316C21.1591 3.35977 19.2849 1.8217 17.0922 0.913446C14.8995 0.005194 12.4867 -0.232446 10.1589 0.230577C7.83114 0.693599 5.69295 1.83649 4.01472 3.51472C2.33649 5.19295 1.1936 7.33114 0.730577 9.65892C0.267554 11.9867 0.505194 14.3995 1.41345 16.5922C2.3217 18.7849 3.85977 20.6591 5.83316 21.9776C7.80655 23.2962 10.1266 24 12.5 24V22.5404C10.4153 22.5404 8.37741 21.9222 6.64405 20.7641C4.91068 19.6059 3.55969 17.9597 2.76191 16.0336C1.96413 14.1076 1.75539 11.9883 2.1621 9.94366C2.5688 7.89902 3.57268 6.02089 5.04679 4.54679C6.52089 3.07268 8.39902 2.0688 10.4437 1.6621C12.4883 1.25539 14.6076 1.46413 16.5336 2.26191C18.4597 3.05969 20.1059 4.41068 21.264 6.14405C22.4222 7.87741 23.0404 9.9153 23.0404 12H24.5Z" fill="url(#paint0_linear_2888_44576)"/>
<defs>
<linearGradient id="paint0_linear_2888_44576" x1="22.847" y1="7.59165" x2="11.0964" y2="24" gradientUnits="userSpaceOnUse">
<stop stop-color="#1A72FE"/>
<stop offset="1" stop-color="#1A72FE" stop-opacity="0"/>
</linearGradient>
</defs>
</svg>
