<svg width="140" height="140" viewBox="0 0 140 140" fill="none" xmlns="http://www.w3.org/2000/svg">
<path d="M115.36 98.1741C116.788 95.8637 118.025 93.4635 119.073 90.9824H89.8107C84.6047 95.9519 77.5826 98.9276 69.9999 98.9276C62.4172 98.9276 55.395 95.9519 50.189 90.9824H20.9271C21.9744 93.4635 23.2117 95.8637 24.6393 98.1741L14.894 107.936C13.2944 109.541 13.2944 112.144 14.894 113.749C27.1331 125.862 26.4932 125.711 27.8276 126.265C29.3616 126.897 31.1198 126.552 32.2956 125.374L42.0409 115.61C46.8889 118.615 52.1307 120.788 57.6952 122.1V135.914C57.6952 138.182 59.5327 140.023 61.7967 140.023H78.203C80.4671 140.023 82.3046 138.182 82.3046 135.914V122.1C87.869 120.788 93.1108 118.615 97.9589 115.61L107.704 125.374C109.309 126.982 111.91 126.971 113.504 125.374L125.106 113.749C126.705 112.144 126.705 109.541 125.106 107.936L115.36 98.1741Z" fill="#888888"/>
<path d="M135.898 58.1057H4.10156C1.83641 58.1057 0 59.9457 0 62.2152V78.6536C0 80.9232 1.83641 82.7632 4.10156 82.7632H135.898C138.164 82.7632 140 80.9232 140 78.6536V62.2152C140 59.9457 138.164 58.1057 135.898 58.1057Z" fill="#888888"/>
<path d="M129.895 49.886C125.727 34.3954 113.892 21.9584 98.7108 14.9819V29.3381C98.7108 31.6066 96.8733 33.4477 94.6093 33.4477C92.3452 33.4477 90.5077 31.6066 90.5077 29.3381V11.8504C87.8362 11.023 85.0964 10.3573 82.3046 9.86138V37.5573C82.3046 39.8258 80.4671 41.6669 78.203 41.6669H61.7968C59.5327 41.6669 57.6952 39.8258 57.6952 37.5573V9.85864C54.9007 10.3545 52.1608 11.0175 49.4921 11.8449V29.3381C49.4921 31.6066 47.6546 33.4477 45.3905 33.4477C43.1265 33.4477 41.2889 31.6066 41.2889 29.3381V14.9765C26.0711 21.9666 14.2692 34.4313 10.1061 49.886H129.895Z" fill="#888888"/>
<path d="M74.1016 4.13303C74.1016 1.86344 72.2652 0.0234375 70 0.0234375C67.7348 0.0234375 65.8984 1.86344 65.8984 4.13303V33.4481H74.1016V4.13303Z" fill="#888888"/>
</svg>
